<svg width="12" height="12" viewBox="0 0 12 12" fill="none" xmlns="http://www.w3.org/2000/svg">
<path d="M10.6665 5.33246H3.21979L6.47312 2.07913C6.73312 1.81913 6.73312 1.39246 6.47312 1.13246C6.41144 1.07066 6.33819 1.02163 6.25754 0.988174C6.17689 0.95472 6.09043 0.9375 6.00312 0.9375C5.91581 0.9375 5.82935 0.95472 5.7487 0.988174C5.66806 1.02163 5.5948 1.07066 5.53312 1.13246L1.13979 5.5258C1.07798 5.58747 1.02895 5.66073 0.995499 5.74138C0.962044 5.82203 0.944824 5.90848 0.944824 5.9958C0.944824 6.08311 0.962044 6.16956 0.995499 6.25021C1.02895 6.33086 1.07798 6.40412 1.13979 6.4658L5.53312 10.8591C5.59484 10.9209 5.66812 10.9698 5.74876 11.0032C5.8294 11.0366 5.91583 11.0538 6.00312 11.0538C6.09041 11.0538 6.17684 11.0366 6.25748 11.0032C6.33813 10.9698 6.4114 10.9209 6.47312 10.8591C6.53484 10.7974 6.5838 10.7241 6.6172 10.6435C6.65061 10.5628 6.6678 10.4764 6.6678 10.3891C6.6678 10.3018 6.65061 10.2154 6.6172 10.1348C6.5838 10.0541 6.53484 9.98085 6.47312 9.91913L3.21979 6.6658H10.6665C11.0331 6.6658 11.3331 6.3658 11.3331 5.99913C11.3331 5.63246 11.0331 5.33246 10.6665 5.33246Z" fill="#2931EE"/>
</svg>
