<svg width="15" height="15" viewBox="0 0 15 15" fill="none" xmlns="http://www.w3.org/2000/svg">
<path d="M14.5001 13.7933L10.7241 10.0173C11.6315 8.92796 12.0839 7.53072 11.9874 6.11625C11.8908 4.70179 11.2527 3.379 10.2057 2.42306C9.15867 1.46712 7.78343 0.951639 6.36604 0.983845C4.94864 1.01605 3.59823 1.59347 2.59573 2.59597C1.59322 3.59848 1.01581 4.94889 0.983601 6.36628C0.951395 7.78367 1.46688 9.15892 2.42282 10.2059C3.37875 11.2529 4.70154 11.8911 6.11601 11.9876C7.53048 12.0842 8.92771 11.6317 10.0171 10.7243L13.7931 14.5003L14.5001 13.7933ZM2.00006 6.5003C2.00006 5.61029 2.26398 4.74026 2.75844 4.00024C3.25291 3.26021 3.95571 2.68344 4.77798 2.34284C5.60025 2.00225 6.50505 1.91313 7.37796 2.08677C8.25088 2.2604 9.0527 2.68899 9.68204 3.31832C10.3114 3.94766 10.74 4.74948 10.9136 5.6224C11.0872 6.49531 10.9981 7.40011 10.6575 8.22238C10.3169 9.04464 9.74014 9.74745 9.00012 10.2419C8.2601 10.7364 7.39007 11.0003 6.50006 11.0003C5.30699 10.999 4.16317 10.5244 3.31954 9.68082C2.47591 8.83719 2.00138 7.69337 2.00006 6.5003Z" fill="#929191"/>
</svg>
