<svg width="50" height="56" viewBox="0 0 50 56" fill="none" xmlns="http://www.w3.org/2000/svg">
<path d="M49 17.3324C48.999 16.3972 48.7522 15.4786 48.2841 14.6689C47.8161 13.8591 47.1433 13.1867 46.3333 12.7191L27.6667 2.05242C26.8559 1.58432 25.9362 1.33789 25 1.33789C24.0638 1.33789 23.1441 1.58432 22.3333 2.05242L3.66667 12.7191C2.8567 13.1867 2.18395 13.8591 1.7159 14.6689C1.24785 15.4786 1.00096 16.3972 1 17.3324V38.6658C1.00096 39.601 1.24785 40.5196 1.7159 41.3293C2.18395 42.139 2.8567 42.8115 3.66667 43.2791L22.3333 53.9458C23.1441 54.4139 24.0638 54.6603 25 54.6603C25.9362 54.6603 26.8559 54.4139 27.6667 53.9458L46.3333 43.2791C47.1433 42.8115 47.8161 42.139 48.2841 41.3293C48.7522 40.5196 48.999 39.601 49 38.6658V17.3324Z" stroke="white" stroke-width="2" stroke-linecap="round" stroke-linejoin="round"/>
<path d="M1.80005 14.666L25 27.9993M25 27.9993L48.2001 14.666M25 27.9993V54.666" stroke="white" stroke-width="2" stroke-linecap="round" stroke-linejoin="round"/>
</svg>
